<?xml version="1.0" encoding="UTF-8" standalone="no"?><svg width="385.404" height="383.438" xml:space="preserve" xmlns="http://www.w3.org/2000/svg"><path d="M56.11 0C25.12 0 0 25.12 0 56.11v271.216c0 30.99 25.12 56.111 56.11 56.111h273.183c30.989 0 56.111-25.122 56.111-56.11V56.108C385.404 25.121 360.282 0 329.293 0Zm136.374 55.91c38.593 0 69.88 31.287 69.88 69.88 0 38.592-31.287 69.88-69.88 69.88-38.593 0-69.877-31.288-69.877-69.88 0-38.593 31.284-69.88 69.877-69.88zm0 40.994c-15.953 0-28.884 12.932-28.884 28.885 0 15.953 12.931 28.889 28.884 28.889 15.953 0 28.887-12.936 28.887-28.889s-12.934-28.885-28.887-28.885zm-59.115 100.95a18.915 18.915 0 0 1 10.318 4.113c.173.14 18.43 13.855 47.848 13.875 29.42-.02 47.3-13.735 47.473-13.875 8.188-6.564 20.145-5.249 26.709 2.937 6.565 8.187 5.25 20.144-2.936 26.71-.887.71-17.652 13.958-45.627 19.657l42.229 41.852c7.426 7.414 7.433 19.443.02 26.87-7.415 7.424-19.442 7.437-26.87.02l-40.996-39.921-37.234 39.664a18.946 18.946 0 0 1-13.68 5.812c-4.748 0-9.5-1.767-13.187-5.322-7.554-7.284-7.773-19.311-.489-26.865l40.08-41.889c-28.759-5.565-46.214-19.158-47.113-19.879-8.186-6.565-9.5-18.522-2.936-26.709 4.103-5.116 10.312-7.548 16.391-7.05z" style="fill:#fff;fill-opacity:1"/><path fill="#fff" d="M191.536 215.842c-.047 0 .046 0 0 .002-.046-.001.047-.002 0-.002z"/></svg>